HIERARCHY
ROOT root
{
	OFFSET	0	13.1	24.9
	CHANNELS 6  Xposition Yposition Zposition Xrotation Yrotation Zrotation
	JOINT spine_1
	{
		OFFSET	0	9.99999	0
		CHANNELS 3  Xrotation Yrotation Zrotation
		JOINT spine_2
		{
			OFFSET	0	112	-10
			CHANNELS 3  Xrotation Yrotation Zrotation
			JOINT spine_3
			{
				OFFSET	0	206.5	19.3
				CHANNELS 3  Xrotation Yrotation Zrotation
				JOINT spine_4
				{
					OFFSET	0	110.4	14.6
					CHANNELS 3  Xrotation Yrotation Zrotation
					JOINT neck_1
					{
						OFFSET	0	71.8	-50.3
						CHANNELS 3  Xrotation Yrotation Zrotation
						JOINT neck_2
						{
							OFFSET	0	86.2	-25.8
							CHANNELS 3  Xrotation Yrotation Zrotation
							JOINT head_ee
							{
								OFFSET	0	179.8	-8.7
								CHANNELS 3  Xrotation Yrotation Zrotation
								End Site
								{
									OFFSET	1	0	0
								}
							}
						}
					}
					JOINT left_clavicle
					{
						OFFSET	-43.2	22.4	-70.8
						CHANNELS 3  Xrotation Yrotation Zrotation
						JOINT left_shoulder
						{
							OFFSET	-93.9	-5.79999	48.7
							CHANNELS 3  Xrotation Yrotation Zrotation
							JOINT left_elbow
							{
								OFFSET	-291.4	-30.8	15.2
								CHANNELS 3  Xrotation Yrotation Zrotation
								JOINT left_lowarm_twist
								{
									OFFSET	-110.7	-3.89999	13.6
									CHANNELS 3  Xrotation Yrotation Zrotation
									JOINT left_hand
									{
										OFFSET	-110.7	-3.89999	13.6
										CHANNELS 3  Xrotation Yrotation Zrotation
										JOINT left_ee
										{
											OFFSET	-80.8	-5.10001	12.1
											CHANNELS 3  Xrotation Yrotation Zrotation
											End Site
											{
												OFFSET	1	0	0
											}
										}
									}
								}
							}
						}
					}
					JOINT right_clavicle
					{
						OFFSET	43.2	22.4	-70.8
						CHANNELS 3  Xrotation Yrotation Zrotation
						JOINT right_shoulder
						{
							OFFSET	93.9	-5.79999	48.7
							CHANNELS 3  Xrotation Yrotation Zrotation
							JOINT right_elbow
							{
								OFFSET	291.4	-30.8	15.2
								CHANNELS 3  Xrotation Yrotation Zrotation
								JOINT right_lowarm_twist
								{
									OFFSET	110.7	-3.89999	13.6
									CHANNELS 3  Xrotation Yrotation Zrotation
									JOINT right_hand
									{
										OFFSET	110.7	-3.89999	13.6
										CHANNELS 3  Xrotation Yrotation Zrotation
										JOINT right_ee
										{
											OFFSET	80.8	-5.10001	12.1
											CHANNELS 3  Xrotation Yrotation Zrotation
											End Site
											{
												OFFSET	1	0	0
											}
										}
									}
								}
							}
						}
					}
				}
			}
		}
	}
	JOINT left_hip
	{
		OFFSET	-82.8	-127.5	0.300001
		CHANNELS 3  Xrotation Yrotation Zrotation
		JOINT left_knee
		{
			OFFSET	-28.2	-396.7	2.2
			CHANNELS 3  Xrotation Yrotation Zrotation
			JOINT left_ankle
			{
				OFFSET	-11.7	-411.3	35.4
				CHANNELS 3  Xrotation Yrotation Zrotation
				JOINT left_toes
				{
					OFFSET	0	-60	-88.6
					CHANNELS 3  Xrotation Yrotation Zrotation
					JOINT left_foot_ee
					{
						OFFSET	-22.5	-16.5	-42.2
						CHANNELS 3  Xrotation Yrotation Zrotation
						End Site
						{
							OFFSET	1	0	0
						}
					}
				}
			}
		}
	}
	JOINT right_hip
	{
		OFFSET	82.8	-127.5	0.300001
		CHANNELS 3  Xrotation Yrotation Zrotation
		JOINT right_knee
		{
			OFFSET	28.2	-396.7	2.2
			CHANNELS 3  Xrotation Yrotation Zrotation
			JOINT right_ankle
			{
				OFFSET	11.7	-411.3	35.4
				CHANNELS 3  Xrotation Yrotation Zrotation
				JOINT right_toes
				{
					OFFSET	0	-60	-88.6
					CHANNELS 3  Xrotation Yrotation Zrotation
					JOINT right_foot_ee
					{
						OFFSET	22.5	-16.5	-42.2
						CHANNELS 3  Xrotation Yrotation Zrotation
						End Site
						{
							OFFSET	1	0	0
						}
					}
				}
			}
		}
	}
}
MOTION
Frames: 8
Frame Time: 0.02
2820.00351241 698.295 -1609.54963144 -14.3498815159 71.1729288579 11.4256604215 1.65386 -0.102235 1.42373 1.65496 -0.192614 1.41434 1.65015 -0.44682 1.35567 1.64766 -0.227133 1.40921 -10.6932 8.01693 -0.50898 -10.7866 15.4714 1.61211 -0.0 0.0 -0.0 1.22169 5.66605 2.89434 6.81404 -24.7227 62.6803 1.14708 -29.6056 0.303141 -32.0616 -2.14916 3.43422 -0.46188 21.8001 6.02994 -0.0 0.0 -0.0 8.68793 26.9169 -15.8468 -28.4065 21.3337 -62.211 1.16085 29.9 -0.309972 -14.6957 0.742949 -1.72079 1.26207 17.8725 -0.822056 0.0 0.0 0.0 14.6059 -2.42773 9.58166 -3.33085 0.12274 0.496374 -8.2627 28.1114 1.3032 11.8938 -0.0 -0.0 -0.0 0.0 -0.0 31.736 25.6165 0.73244 -63.4411 2.58279 -8.8933 -25.9479 -29.8631 -4.18689 -15.1143 0.0 0.0 0.0 0.0 0.0 
2799.34026993 703.282 -1604.19647657 -17.2125498982 71.8470913988 14.6130865574 2.14273 -0.142555 1.41233 2.14381 -0.232127 1.4004 2.13795 -0.471762 1.33883 2.13554 -0.25442 1.39652 -10.2012 8.1172 0.0468188 -10.2808 15.2639 2.11077 -0.0 0.0 -0.0 1.32616 4.38821 2.9673 6.76742 -25.3943 62.3233 1.17417 -30.1834 0.316643 -30.755 -2.02583 3.32078 -0.818774 23.4121 4.61092 -0.0 0.0 -0.0 8.40647 25.6452 -15.3586 -28.4204 21.022 -63.0766 1.03484 27.1403 -0.249789 -16.0347 0.832163 -1.86714 1.20808 18.03 -0.392595 0.0 0.0 0.0 12.5581 -3.14699 9.63123 -0.685277 0.02761 0.101539 -8.91637 27.9579 1.40623 12.5647 -0.0 -0.0 -0.0 0.0 -0.0 36.5699 26.0422 -1.39952 -60.8184 2.289 -8.61498 -25.4328 -28.8676 -4.07697 -19.8541 0.0 0.0 0.0 0.0 0.0 
2784.31283955 701.955 -1594.25223679 -18.1994269649 71.4329617796 15.4995742306 2.32702 0.135187 1.31065 2.32797 0.0515203 1.3166 2.32903 -0.173438 1.30614 2.32665 0.0350012 1.31714 -11.0953 8.30291 0.545896 -11.1987 15.3394 2.76267 -0.0 0.0 -0.0 1.1121 5.5534 2.6844 7.5553 -25.3407 61.2188 1.31465 -33.0722 0.390335 -29.8467 -1.94164 3.24029 -1.37018 23.1127 1.3124 -0.0 0.0 -0.0 8.13528 24.4885 -14.8751 -28.7915 20.8082 -64.3196 0.939441 24.9555 -0.207891 -17.9594 0.966354 -2.0738 1.05816 17.1388 0.213044 0.0 0.0 0.0 11.1146 -1.03803 9.62346 1.16549 -0.0497448 -0.171927 -8.34318 27.7055 1.31279 13.4655 -0.0 -0.0 -0.0 0.0 -0.0 37.4947 23.5179 -1.33708 -54.5062 1.63685 -7.89303 -23.5917 -26.9963 -3.7387 -22.236 0.0 0.0 0.0 0.0 0.0 
2769.66870062 695.542 -1578.79364968 -19.3371498554 71.177451927 16.2776323569 2.74881 0.340735 1.282 2.74968 0.258475 1.30108 2.75539 0.0430595 1.32581 2.75302 0.251887 1.30237 -11.6682 8.90182 0.738035 -11.8034 16.3872 3.19627 -0.0 0.0 -0.0 0.954201 6.20517 2.46121 8.26472 -25.3075 60.4767 1.48124 -36.2676 0.485136 -29.1204 -1.87525 3.17499 -1.865 22.1909 -1.9729 -0.0 0.0 -0.0 7.91496 23.6807 -14.4663 -29.1474 20.6357 -65.1458 0.874338 23.4182 -0.181215 -19.4282 1.07341 -2.22844 0.942832 15.6786 0.344181 0.0 0.0 0.0 9.7211 0.509619 10.3952 0.389925 -0.0162527 -0.0576294 -7.94697 27.6057 1.24899 15.0945 -0.0 -0.0 -0.0 0.0 -0.0 37.9383 20.5315 -2.30874 -50.2273 1.24203 -7.36533 -22.0281 -25.7841 -3.46654 -23.3673 0.0 0.0 0.0 0.0 0.0 
2738.94513585 701.317 -1568.54372232 -16.308621052 70.1887153191 12.7664309922 2.9229 0.494469 1.26137 2.92369 0.413209 1.29028 2.93284 0.201681 1.33972 2.93057 0.410717 1.29107 -13.3012 10.4089 2.08128 -13.5288 18.5346 5.18897 -0.0 0.0 -0.0 0.543228 7.71234 1.8793 9.14063 -24.4101 58.8934 1.79822 -41.6903 0.684751 -28.2612 -1.79779 3.09666 -2.74677 20.6515 -7.93803 -0.0 0.0 -0.0 7.27195 19.4214 -13.4177 -31.6022 21.4576 -66.0073 0.693685 18.9644 -0.115863 -22.5293 1.3123 -2.54574 0.56463 11.1316 0.921768 0.0 0.0 0.0 7.36657 2.29879 11.3552 -0.723501 0.0291141 0.107212 -6.40484 28.5933 1.01044 16.4101 -0.0 -0.0 -0.0 0.0 -0.0 39.6758 16.7634 -2.16568 -43.421 0.698632 -6.47043 -22.326 -23.977 -3.48156 -24.9433 0.0 0.0 0.0 0.0 0.0 
2719.20513503 700.455 -1558.65881783 -17.5602056228 71.0659717183 14.3727930328 3.10193 0.443042 1.14646 3.10259 0.369197 1.17232 3.10997 0.180834 1.2157 3.1081 0.370548 1.17189 -14.0853 11.2242 2.88402 -14.3672 19.6764 6.35114 -0.0 0.0 -0.0 0.375712 8.38679 1.65597 9.40023 -23.8791 58.2043 1.9845 -44.5056 0.81206 -28.0766 -1.78131 3.07968 -3.14915 19.5938 -10.9431 -0.0 0.0 -0.0 7.05658 16.8687 -13.1341 -32.6504 22.2461 -66.1551 0.591556 16.3328 -0.0848912 -23.7625 1.41204 -2.66829 0.334002 7.38507 0.879186 0.0 0.0 0.0 5.34922 2.7045 12.078 -1.14228 0.0453461 0.169431 -4.21242 28.7765 0.662925 16.9045 -0.0 -0.0 -0.0 0.0 -0.0 40.1183 15.4238 -1.90712 -36.4657 0.25736 -5.49714 -23.1043 -22.7522 -3.58318 -25.5001 0.0 0.0 0.0 0.0 0.0 
2705.91514641 701.91 -1550.5244411 -18.9637182518 71.6771946022 16.0279916289 3.26724 0.41639 1.12562 3.26788 0.343925 1.14983 3.27457 0.162811 1.18906 3.27277 0.348546 1.14843 -13.5775 11.5811 1.76815 -13.8948 20.9889 5.32936 -0.0 0.0 -0.0 0.121168 8.78744 1.25416 9.1466 -23.515 57.1727 2.12813 -46.5059 0.91453 -27.3899 -1.72047 3.01606 -3.20878 16.2587 -13.1884 -0.0 0.0 -0.0 6.80989 15.2544 -12.7064 -32.8043 22.9137 -66.0034 0.520463 14.4574 -0.0660153 -24.3638 1.46163 -2.72727 0.329583 2.92396 -0.978319 0.0 0.0 0.0 3.82932 2.39345 12.232 -2.03585 0.078455 0.302567 -0.6978 28.539 0.108916 16.8999 -0.0 -0.0 -0.0 0.0 -0.0 40.4447 14.4019 -1.80779 -29.5822 -0.0598432 -4.48926 -24.1037 -21.31 -3.71605 -26.0825 0.0 0.0 0.0 0.0 0.0 
2687.03936136 700.212 -1548.76602486 -17.2891586321 71.4577885441 14.6685241411 3.39777 0.397631 1.11739 3.3984 0.325727 1.14043 3.40465 0.148946 1.17664 3.40287 0.332893 1.13836 -13.7587 11.757 0.908817 -14.123 21.8649 4.61828 -0.0 0.0 -0.0 -0.0415647 9.03266 0.998299 9.15284 -23.2698 56.5154 2.27751 -48.4409 1.02464 -26.9993 -1.6862 2.97955 -3.27016 13.8763 -14.9193 -0.0 0.0 -0.0 6.65572 14.1534 -12.4427 -32.8805 24.0219 -65.4718 0.47631 13.2763 -0.0554329 -24.9616 1.51154 -2.78539 0.364158 -1.18651 -2.92437 0.0 0.0 0.0 2.89839 2.20997 12.162 -3.08385 0.114631 0.459334 1.60342 28.6133 -0.249143 16.6639 -0.0 -0.0 -0.0 0.0 -0.0 40.6982 13.7003 -1.64764 -23.0142 -0.247679 -3.49933 -23.8802 -19.8681 -3.66203 -26.4118 0.0 0.0 0.0 0.0 0.0 
